<svg width="436" height="596" viewBox="0 0 436 596" fill="none" xmlns="http://www.w3.org/2000/svg">
<rect width="436" height="596" fill="white"/>
<path d="M98.6408 148.5H94.5183C93.2942 143.791 90.7648 139.517 87.2177 136.164C83.6705 132.812 79.2477 130.514 74.4518 129.534C69.656 128.553 64.6794 128.929 60.0876 130.617C55.4958 132.306 51.4728 135.24 48.4758 139.086C45.4789 142.932 43.6281 147.536 43.1337 152.375C42.6394 157.214 43.5214 162.094 45.6795 166.459C47.8375 170.825 51.1851 174.502 55.3419 177.073C59.4986 179.643 64.2979 181.004 69.1942 181H98.6408C102.98 181 107.141 179.288 110.209 176.24C113.276 173.193 115 169.06 115 164.75C115 160.44 113.276 156.307 110.209 153.26C107.141 150.212 102.98 148.5 98.6408 148.5Z" stroke="#C1C1C1" stroke-width="6" stroke-linecap="round" stroke-linejoin="round"/>
<path d="M338.359 220.5H342.482C343.706 215.791 346.235 211.517 349.782 208.164C353.33 204.812 357.752 202.514 362.548 201.534C367.344 200.553 372.321 200.929 376.912 202.617C381.504 204.306 385.527 207.24 388.524 211.086C391.521 214.932 393.372 219.536 393.866 224.375C394.361 229.214 393.479 234.094 391.321 238.459C389.162 242.825 385.815 246.502 381.658 249.073C377.501 251.643 372.702 253.004 367.806 253H338.359C334.02 253 329.859 251.288 326.791 248.24C323.724 245.193 322 241.06 322 236.75C322 232.44 323.724 228.307 326.791 225.26C329.859 222.212 334.02 220.5 338.359 220.5Z" stroke="#C1C1C1" stroke-width="6" stroke-linecap="round" stroke-linejoin="round"/>
<path d="M337.73 187.73C338.021 187.44 338.379 187.226 338.772 187.107C339.165 186.988 339.582 186.968 339.984 187.048C340.387 187.129 340.764 187.307 341.082 187.568C341.399 187.828 341.648 188.163 341.805 188.543C341.962 188.922 342.024 189.335 341.984 189.743C341.944 190.152 341.804 190.545 341.576 190.887C341.348 191.229 341.039 191.509 340.677 191.703C340.315 191.897 339.911 191.999 339.5 192H322M329.59 184.59C329.822 184.356 330.109 184.184 330.424 184.087C330.739 183.991 331.073 183.974 331.396 184.038C331.72 184.102 332.022 184.245 332.277 184.454C332.532 184.663 332.731 184.931 332.857 185.236C332.983 185.54 333.031 185.871 332.998 186.199C332.966 186.527 332.852 186.842 332.669 187.115C332.485 187.389 332.236 187.613 331.945 187.767C331.654 187.921 331.33 188.001 331 188H322L329.59 184.59ZM332.59 199.41C332.822 199.644 333.109 199.816 333.424 199.913C333.739 200.009 334.073 200.026 334.396 199.962C334.72 199.898 335.022 199.755 335.277 199.546C335.532 199.337 335.731 199.069 335.857 198.764C335.983 198.46 336.031 198.129 335.998 197.801C335.966 197.473 335.852 197.158 335.669 196.885C335.485 196.611 335.236 196.387 334.945 196.233C334.654 196.079 334.33 195.999 334 196H322L332.59 199.41Z" stroke="#C1C1C1" stroke-width="2" stroke-linecap="round" stroke-linejoin="round"/>
<path d="M99.2655 115.73C98.9747 115.44 98.6168 115.226 98.2236 115.107C97.8304 114.988 97.4139 114.968 97.0111 115.048C96.6082 115.129 96.2313 115.307 95.9138 115.568C95.5963 115.828 95.3479 116.163 95.1906 116.543C95.0333 116.922 94.9719 117.335 95.0119 117.743C95.0519 118.152 95.192 118.545 95.4199 118.887C95.6478 119.229 95.9564 119.509 96.3184 119.703C96.6804 119.897 97.0847 119.999 97.4955 120H114.996M107.406 112.59C107.173 112.356 106.887 112.184 106.572 112.087C106.257 111.991 105.923 111.974 105.599 112.038C105.276 112.102 104.974 112.245 104.719 112.454C104.464 112.663 104.265 112.931 104.139 113.236C104.013 113.54 103.964 113.871 103.997 114.199C104.03 114.527 104.143 114.842 104.327 115.115C104.511 115.389 104.759 115.613 105.05 115.767C105.341 115.921 105.666 116.001 105.996 116H114.996L107.406 112.59ZM104.406 127.41C104.173 127.644 103.887 127.816 103.572 127.913C103.257 128.009 102.923 128.026 102.599 127.962C102.276 127.898 101.974 127.755 101.719 127.546C101.464 127.337 101.265 127.069 101.139 126.764C101.013 126.46 100.964 126.129 100.997 125.801C101.03 125.473 101.143 125.158 101.327 124.885C101.511 124.611 101.759 124.387 102.05 124.233C102.341 124.079 102.666 123.999 102.996 124H114.996L104.406 127.41Z" stroke="#C1C1C1" stroke-width="2" stroke-linecap="round" stroke-linejoin="round"/>
<path d="M379.006 258V260.402" stroke="#C1C1C1" stroke-width="2" stroke-linecap="round" stroke-linejoin="round"/>
<path d="M379.006 267.61V270.012" stroke="#C1C1C1" stroke-width="2" stroke-linecap="round" stroke-linejoin="round"/>
<path d="M374.76 259.76L376.459 261.459" stroke="#C1C1C1" stroke-width="2" stroke-linecap="round" stroke-linejoin="round"/>
<path d="M381.553 266.553L383.252 268.252" stroke="#C1C1C1" stroke-width="2" stroke-linecap="round" stroke-linejoin="round"/>
<path d="M373 264.006H375.402" stroke="#C1C1C1" stroke-width="2" stroke-linecap="round" stroke-linejoin="round"/>
<path d="M382.61 264.006H385.012" stroke="#C1C1C1" stroke-width="2" stroke-linecap="round" stroke-linejoin="round"/>
<path d="M374.76 268.252L376.459 266.553" stroke="#C1C1C1" stroke-width="2" stroke-linecap="round" stroke-linejoin="round"/>
<path d="M381.553 261.459L383.252 259.76" stroke="#C1C1C1" stroke-width="2" stroke-linecap="round" stroke-linejoin="round"/>
<path d="M336.006 264V266.402" stroke="#C1C1C1" stroke-width="2" stroke-linecap="round" stroke-linejoin="round"/>
<path d="M336.006 273.61V276.012" stroke="#C1C1C1" stroke-width="2" stroke-linecap="round" stroke-linejoin="round"/>
<path d="M331.76 265.76L333.459 267.459" stroke="#C1C1C1" stroke-width="2" stroke-linecap="round" stroke-linejoin="round"/>
<path d="M338.553 272.553L340.252 274.252" stroke="#C1C1C1" stroke-width="2" stroke-linecap="round" stroke-linejoin="round"/>
<path d="M330 270.006H332.402" stroke="#C1C1C1" stroke-width="2" stroke-linecap="round" stroke-linejoin="round"/>
<path d="M339.61 270.006H342.012" stroke="#C1C1C1" stroke-width="2" stroke-linecap="round" stroke-linejoin="round"/>
<path d="M331.76 274.252L333.459 272.553" stroke="#C1C1C1" stroke-width="2" stroke-linecap="round" stroke-linejoin="round"/>
<path d="M338.553 267.459L340.252 265.76" stroke="#C1C1C1" stroke-width="2" stroke-linecap="round" stroke-linejoin="round"/>
<path d="M358.006 275V277.402" stroke="#C1C1C1" stroke-width="2" stroke-linecap="round" stroke-linejoin="round"/>
<path d="M358.006 284.61V287.012" stroke="#C1C1C1" stroke-width="2" stroke-linecap="round" stroke-linejoin="round"/>
<path d="M353.76 276.76L355.459 278.459" stroke="#C1C1C1" stroke-width="2" stroke-linecap="round" stroke-linejoin="round"/>
<path d="M360.553 283.553L362.252 285.252" stroke="#C1C1C1" stroke-width="2" stroke-linecap="round" stroke-linejoin="round"/>
<path d="M352 281.006H354.402" stroke="#C1C1C1" stroke-width="2" stroke-linecap="round" stroke-linejoin="round"/>
<path d="M361.61 281.006H364.012" stroke="#C1C1C1" stroke-width="2" stroke-linecap="round" stroke-linejoin="round"/>
<path d="M353.76 285.252L355.459 283.553" stroke="#C1C1C1" stroke-width="2" stroke-linecap="round" stroke-linejoin="round"/>
<path d="M360.553 278.459L362.252 276.76" stroke="#C1C1C1" stroke-width="2" stroke-linecap="round" stroke-linejoin="round"/>
<path d="M100.788 190V192.315" stroke="#C1C1C1" stroke-width="2" stroke-linecap="round" stroke-linejoin="round"/>
<path d="M100.788 199.26V201.575" stroke="#C1C1C1" stroke-width="2" stroke-linecap="round" stroke-linejoin="round"/>
<path d="M96.6958 191.696L98.3337 193.334" stroke="#C1C1C1" stroke-width="2" stroke-linecap="round" stroke-linejoin="round"/>
<path d="M103.242 198.242L104.879 199.879" stroke="#C1C1C1" stroke-width="2" stroke-linecap="round" stroke-linejoin="round"/>
<path d="M95 195.788H97.3151" stroke="#C1C1C1" stroke-width="2" stroke-linecap="round" stroke-linejoin="round"/>
<path d="M104.26 195.788H106.575" stroke="#C1C1C1" stroke-width="2" stroke-linecap="round" stroke-linejoin="round"/>
<path d="M96.6958 199.879L98.3337 198.242" stroke="#C1C1C1" stroke-width="2" stroke-linecap="round" stroke-linejoin="round"/>
<path d="M103.242 193.334L104.879 191.696" stroke="#C1C1C1" stroke-width="2" stroke-linecap="round" stroke-linejoin="round"/>
<path d="M57.7876 188V190.315" stroke="#C1C1C1" stroke-width="2" stroke-linecap="round" stroke-linejoin="round"/>
<path d="M57.7876 197.26V199.575" stroke="#C1C1C1" stroke-width="2" stroke-linecap="round" stroke-linejoin="round"/>
<path d="M53.6958 189.696L55.3337 191.334" stroke="#C1C1C1" stroke-width="2" stroke-linecap="round" stroke-linejoin="round"/>
<path d="M60.2416 196.242L61.8795 197.879" stroke="#C1C1C1" stroke-width="2" stroke-linecap="round" stroke-linejoin="round"/>
<path d="M52 193.788H54.3151" stroke="#C1C1C1" stroke-width="2" stroke-linecap="round" stroke-linejoin="round"/>
<path d="M61.2602 193.788H63.5753" stroke="#C1C1C1" stroke-width="2" stroke-linecap="round" stroke-linejoin="round"/>
<path d="M53.6958 197.879L55.3337 196.242" stroke="#C1C1C1" stroke-width="2" stroke-linecap="round" stroke-linejoin="round"/>
<path d="M60.2416 191.334L61.8795 189.696" stroke="#C1C1C1" stroke-width="2" stroke-linecap="round" stroke-linejoin="round"/>
<path d="M78.9878 202.382V204.697" stroke="#C1C1C1" stroke-width="2" stroke-linecap="round" stroke-linejoin="round"/>
<path d="M78.9878 211.642V213.957" stroke="#C1C1C1" stroke-width="2" stroke-linecap="round" stroke-linejoin="round"/>
<path d="M74.8959 204.078L76.5338 205.716" stroke="#C1C1C1" stroke-width="2" stroke-linecap="round" stroke-linejoin="round"/>
<path d="M81.4418 210.624L83.0797 212.261" stroke="#C1C1C1" stroke-width="2" stroke-linecap="round" stroke-linejoin="round"/>
<path d="M73.2002 208.17H75.5152" stroke="#C1C1C1" stroke-width="2" stroke-linecap="round" stroke-linejoin="round"/>
<path d="M82.4604 208.17H84.7754" stroke="#C1C1C1" stroke-width="2" stroke-linecap="round" stroke-linejoin="round"/>
<path d="M74.8959 212.261L76.5338 210.624" stroke="#C1C1C1" stroke-width="2" stroke-linecap="round" stroke-linejoin="round"/>
<path d="M81.4418 205.716L83.0797 204.078" stroke="#C1C1C1" stroke-width="2" stroke-linecap="round" stroke-linejoin="round"/>
<path d="M141.42 308.628L144.76 302.203H146.676L142.264 310.228V315H140.576V310.228L136.164 302.203H138.098L141.42 308.628ZM147.062 310.157C147.062 309.226 147.244 308.388 147.607 307.644C147.977 306.899 148.486 306.325 149.137 305.921C149.793 305.517 150.54 305.314 151.378 305.314C152.673 305.314 153.719 305.763 154.516 306.659C155.318 307.556 155.72 308.748 155.72 310.236V310.351C155.72 311.276 155.541 312.108 155.184 312.847C154.832 313.579 154.325 314.15 153.663 314.561C153.007 314.971 152.251 315.176 151.396 315.176C150.106 315.176 149.061 314.728 148.258 313.831C147.461 312.935 147.062 311.748 147.062 310.271V310.157ZM148.697 310.351C148.697 311.405 148.94 312.252 149.427 312.891C149.919 313.529 150.575 313.849 151.396 313.849C152.222 313.849 152.878 313.526 153.364 312.882C153.851 312.231 154.094 311.323 154.094 310.157C154.094 309.114 153.845 308.271 153.347 307.626C152.854 306.976 152.198 306.65 151.378 306.65C150.575 306.65 149.928 306.97 149.436 307.608C148.943 308.247 148.697 309.161 148.697 310.351ZM163.63 314.06C162.997 314.804 162.068 315.176 160.844 315.176C159.83 315.176 159.057 314.883 158.523 314.297C157.996 313.705 157.729 312.832 157.724 311.678V305.49H159.35V311.634C159.35 313.075 159.936 313.796 161.107 313.796C162.35 313.796 163.176 313.333 163.586 312.407V305.49H165.212V315H163.665L163.63 314.06ZM173.781 306.642C174.502 305.757 175.439 305.314 176.594 305.314C178.604 305.314 179.617 306.448 179.635 308.716V315H178.009V308.707C178.003 308.021 177.845 307.515 177.534 307.187C177.229 306.858 176.752 306.694 176.102 306.694C175.574 306.694 175.111 306.835 174.713 307.116C174.314 307.397 174.004 307.767 173.781 308.224V315H172.155V301.5H173.781V306.642ZM187.94 315C187.847 314.812 187.771 314.479 187.712 313.998C186.956 314.783 186.054 315.176 185.005 315.176C184.067 315.176 183.297 314.912 182.693 314.385C182.096 313.852 181.797 313.178 181.797 312.363C181.797 311.373 182.172 310.605 182.922 310.061C183.678 309.51 184.738 309.234 186.104 309.234H187.686V308.487C187.686 307.919 187.516 307.468 187.176 307.134C186.836 306.794 186.335 306.624 185.673 306.624C185.093 306.624 184.606 306.771 184.214 307.063C183.821 307.356 183.625 307.711 183.625 308.127H181.99C181.99 307.652 182.157 307.195 182.491 306.756C182.831 306.311 183.288 305.959 183.862 305.701C184.442 305.443 185.078 305.314 185.77 305.314C186.865 305.314 187.724 305.59 188.345 306.141C188.966 306.686 189.288 307.438 189.312 308.399V312.776C189.312 313.649 189.423 314.344 189.646 314.859V315H187.94ZM185.242 313.761C185.752 313.761 186.235 313.629 186.692 313.365C187.149 313.102 187.48 312.759 187.686 312.337V310.386H186.411C184.419 310.386 183.423 310.969 183.423 312.135C183.423 312.645 183.593 313.043 183.933 313.33C184.272 313.617 184.709 313.761 185.242 313.761ZM194.857 312.794L197.213 305.49H198.874L195.464 315H194.225L190.779 305.49H192.44L194.857 312.794ZM204.262 315.176C202.973 315.176 201.924 314.754 201.115 313.91C200.307 313.061 199.902 311.927 199.902 310.509V310.21C199.902 309.267 200.081 308.426 200.438 307.688C200.802 306.943 201.306 306.363 201.95 305.947C202.601 305.525 203.304 305.314 204.06 305.314C205.296 305.314 206.257 305.722 206.942 306.536C207.628 307.351 207.971 308.517 207.971 310.034V310.711H201.528C201.552 311.648 201.824 312.407 202.346 312.987C202.873 313.562 203.541 313.849 204.35 313.849C204.924 313.849 205.41 313.731 205.809 313.497C206.207 313.263 206.556 312.952 206.854 312.565L207.848 313.339C207.051 314.563 205.855 315.176 204.262 315.176ZM204.06 306.65C203.403 306.65 202.853 306.891 202.407 307.371C201.962 307.846 201.687 308.514 201.581 309.375H206.345V309.252C206.298 308.426 206.075 307.787 205.677 307.336C205.278 306.879 204.739 306.65 204.06 306.65ZM211.398 305.49L211.451 306.686C212.178 305.771 213.127 305.314 214.299 305.314C216.309 305.314 217.322 306.448 217.34 308.716V315H215.714V308.707C215.708 308.021 215.55 307.515 215.239 307.187C214.935 306.858 214.457 306.694 213.807 306.694C213.279 306.694 212.816 306.835 212.418 307.116C212.02 307.397 211.709 307.767 211.486 308.224V315H209.86V305.49H211.398ZM219.203 305.807L218.28 305.174C218.825 304.412 219.106 303.609 219.124 302.766V301.5H220.732V302.643C220.727 303.229 220.58 303.814 220.293 304.4C220.012 304.98 219.648 305.449 219.203 305.807ZM224.898 303.188V305.49H226.674V306.747H224.898V312.645C224.898 313.025 224.978 313.312 225.136 313.506C225.294 313.693 225.563 313.787 225.944 313.787C226.132 313.787 226.39 313.752 226.718 313.682V315C226.29 315.117 225.874 315.176 225.47 315.176C224.743 315.176 224.195 314.956 223.826 314.517C223.457 314.077 223.272 313.453 223.272 312.645V306.747H221.541V305.49H223.272V303.188H224.898ZM235.252 303.188V305.49H237.027V306.747H235.252V312.645C235.252 313.025 235.331 313.312 235.489 313.506C235.647 313.693 235.917 313.787 236.298 313.787C236.485 313.787 236.743 313.752 237.071 313.682V315C236.644 315.117 236.228 315.176 235.823 315.176C235.097 315.176 234.549 314.956 234.18 314.517C233.811 314.077 233.626 313.453 233.626 312.645V306.747H231.895V305.49H233.626V303.188H235.252ZM244.806 315C244.712 314.812 244.636 314.479 244.577 313.998C243.821 314.783 242.919 315.176 241.87 315.176C240.933 315.176 240.162 314.912 239.559 314.385C238.961 313.852 238.662 313.178 238.662 312.363C238.662 311.373 239.037 310.605 239.787 310.061C240.543 309.51 241.604 309.234 242.969 309.234H244.551V308.487C244.551 307.919 244.381 307.468 244.041 307.134C243.701 306.794 243.2 306.624 242.538 306.624C241.958 306.624 241.472 306.771 241.079 307.063C240.687 307.356 240.49 307.711 240.49 308.127H238.855C238.855 307.652 239.022 307.195 239.356 306.756C239.696 306.311 240.153 305.959 240.728 305.701C241.308 305.443 241.943 305.314 242.635 305.314C243.73 305.314 244.589 305.59 245.21 306.141C245.831 306.686 246.153 307.438 246.177 308.399V312.776C246.177 313.649 246.288 314.344 246.511 314.859V315H244.806ZM242.107 313.761C242.617 313.761 243.101 313.629 243.558 313.365C244.015 313.102 244.346 312.759 244.551 312.337V310.386H243.276C241.284 310.386 240.288 310.969 240.288 312.135C240.288 312.645 240.458 313.043 240.798 313.33C241.138 313.617 241.574 313.761 242.107 313.761ZM250.492 315H248.866V301.5H250.492V315ZM255.757 310.597L254.737 311.66V315H253.111V301.5H254.737V309.665L255.607 308.619L258.569 305.49H260.547L256.847 309.463L260.978 315H259.07L255.757 310.597ZM265.996 315.176C264.707 315.176 263.658 314.754 262.85 313.91C262.041 313.061 261.637 311.927 261.637 310.509V310.21C261.637 309.267 261.815 308.426 262.173 307.688C262.536 306.943 263.04 306.363 263.685 305.947C264.335 305.525 265.038 305.314 265.794 305.314C267.03 305.314 267.991 305.722 268.677 306.536C269.362 307.351 269.705 308.517 269.705 310.034V310.711H263.263C263.286 311.648 263.559 312.407 264.08 312.987C264.607 313.562 265.275 313.849 266.084 313.849C266.658 313.849 267.145 313.731 267.543 313.497C267.941 313.263 268.29 312.952 268.589 312.565L269.582 313.339C268.785 314.563 267.59 315.176 265.996 315.176ZM265.794 306.65C265.138 306.65 264.587 306.891 264.142 307.371C263.696 307.846 263.421 308.514 263.315 309.375H268.079V309.252C268.032 308.426 267.81 307.787 267.411 307.336C267.013 306.879 266.474 306.65 265.794 306.65ZM271.199 310.166C271.199 308.707 271.545 307.535 272.236 306.65C272.928 305.76 273.833 305.314 274.952 305.314C276.065 305.314 276.947 305.695 277.598 306.457V301.5H279.224V315H277.729L277.65 313.98C277 314.777 276.095 315.176 274.935 315.176C273.833 315.176 272.934 314.725 272.236 313.822C271.545 312.92 271.199 311.742 271.199 310.289V310.166ZM272.825 310.351C272.825 311.429 273.048 312.272 273.493 312.882C273.938 313.491 274.554 313.796 275.339 313.796C276.37 313.796 277.123 313.333 277.598 312.407V308.039C277.111 307.143 276.364 306.694 275.356 306.694C274.56 306.694 273.938 307.002 273.493 307.617C273.048 308.232 272.825 309.144 272.825 310.351ZM288.426 303.188V305.49H290.201V306.747H288.426V312.645C288.426 313.025 288.505 313.312 288.663 313.506C288.821 313.693 289.091 313.787 289.472 313.787C289.659 313.787 289.917 313.752 290.245 313.682V315C289.817 315.117 289.401 315.176 288.997 315.176C288.271 315.176 287.723 314.956 287.354 314.517C286.984 314.077 286.8 313.453 286.8 312.645V306.747H285.068V305.49H286.8V303.188H288.426ZM291.502 310.157C291.502 309.226 291.684 308.388 292.047 307.644C292.416 306.899 292.926 306.325 293.576 305.921C294.232 305.517 294.979 305.314 295.817 305.314C297.112 305.314 298.158 305.763 298.955 306.659C299.758 307.556 300.159 308.748 300.159 310.236V310.351C300.159 311.276 299.98 312.108 299.623 312.847C299.271 313.579 298.765 314.15 298.103 314.561C297.446 314.971 296.69 315.176 295.835 315.176C294.546 315.176 293.5 314.728 292.697 313.831C291.9 312.935 291.502 311.748 291.502 310.271V310.157ZM293.137 310.351C293.137 311.405 293.38 312.252 293.866 312.891C294.358 313.529 295.015 313.849 295.835 313.849C296.661 313.849 297.317 313.526 297.804 312.882C298.29 312.231 298.533 311.323 298.533 310.157C298.533 309.114 298.284 308.271 297.786 307.626C297.294 306.976 296.638 306.65 295.817 306.65C295.015 306.65 294.367 306.97 293.875 307.608C293.383 308.247 293.137 309.161 293.137 310.351ZM194.304 336C194.21 335.812 194.134 335.479 194.075 334.998C193.319 335.783 192.417 336.176 191.368 336.176C190.431 336.176 189.66 335.912 189.057 335.385C188.459 334.852 188.16 334.178 188.16 333.363C188.16 332.373 188.535 331.605 189.285 331.061C190.041 330.51 191.102 330.234 192.467 330.234H194.049V329.487C194.049 328.919 193.879 328.468 193.539 328.134C193.199 327.794 192.698 327.624 192.036 327.624C191.456 327.624 190.97 327.771 190.577 328.063C190.185 328.356 189.988 328.711 189.988 329.127H188.354C188.354 328.652 188.521 328.195 188.854 327.756C189.194 327.311 189.651 326.959 190.226 326.701C190.806 326.443 191.441 326.314 192.133 326.314C193.229 326.314 194.087 326.59 194.708 327.141C195.329 327.686 195.651 328.438 195.675 329.399V333.776C195.675 334.649 195.786 335.344 196.009 335.859V336H194.304ZM191.605 334.761C192.115 334.761 192.599 334.629 193.056 334.365C193.513 334.102 193.844 333.759 194.049 333.337V331.386H192.774C190.782 331.386 189.786 331.969 189.786 333.135C189.786 333.645 189.956 334.043 190.296 334.33C190.636 334.617 191.072 334.761 191.605 334.761ZM199.762 326.49L199.814 327.686C200.541 326.771 201.49 326.314 202.662 326.314C204.672 326.314 205.686 327.448 205.703 329.716V336H204.077V329.707C204.071 329.021 203.913 328.515 203.603 328.187C203.298 327.858 202.82 327.694 202.17 327.694C201.643 327.694 201.18 327.835 200.781 328.116C200.383 328.397 200.072 328.767 199.85 329.224V336H198.224V326.49H199.762ZM211.267 333.618L213.481 326.49H215.222L211.398 337.468C210.807 339.05 209.866 339.841 208.577 339.841L208.27 339.814L207.663 339.7V338.382L208.103 338.417C208.653 338.417 209.081 338.306 209.386 338.083C209.696 337.86 209.951 337.453 210.15 336.861L210.511 335.895L207.118 326.49H208.894L211.267 333.618ZM216.109 331.157C216.109 330.226 216.291 329.388 216.654 328.644C217.023 327.899 217.533 327.325 218.184 326.921C218.84 326.517 219.587 326.314 220.425 326.314C221.72 326.314 222.766 326.763 223.562 327.659C224.365 328.556 224.767 329.748 224.767 331.236V331.351C224.767 332.276 224.588 333.108 224.23 333.847C223.879 334.579 223.372 335.15 222.71 335.561C222.054 335.971 221.298 336.176 220.442 336.176C219.153 336.176 218.107 335.728 217.305 334.831C216.508 333.935 216.109 332.748 216.109 331.271V331.157ZM217.744 331.351C217.744 332.405 217.987 333.252 218.474 333.891C218.966 334.529 219.622 334.849 220.442 334.849C221.269 334.849 221.925 334.526 222.411 333.882C222.897 333.231 223.141 332.323 223.141 331.157C223.141 330.114 222.892 329.271 222.394 328.626C221.901 327.976 221.245 327.65 220.425 327.65C219.622 327.65 218.975 327.97 218.482 328.608C217.99 329.247 217.744 330.161 217.744 331.351ZM228.344 326.49L228.396 327.686C229.123 326.771 230.072 326.314 231.244 326.314C233.254 326.314 234.268 327.448 234.285 329.716V336H232.659V329.707C232.653 329.021 232.495 328.515 232.185 328.187C231.88 327.858 231.402 327.694 230.752 327.694C230.225 327.694 229.762 327.835 229.363 328.116C228.965 328.397 228.654 328.767 228.432 329.224V336H226.806V326.49H228.344ZM240.684 336.176C239.395 336.176 238.346 335.754 237.537 334.91C236.729 334.061 236.324 332.927 236.324 331.509V331.21C236.324 330.267 236.503 329.426 236.86 328.688C237.224 327.943 237.728 327.363 238.372 326.947C239.022 326.525 239.726 326.314 240.481 326.314C241.718 326.314 242.679 326.722 243.364 327.536C244.05 328.351 244.393 329.517 244.393 331.034V331.711H237.95C237.974 332.648 238.246 333.407 238.768 333.987C239.295 334.562 239.963 334.849 240.771 334.849C241.346 334.849 241.832 334.731 242.23 334.497C242.629 334.263 242.978 333.952 243.276 333.565L244.27 334.339C243.473 335.563 242.277 336.176 240.684 336.176ZM240.481 327.65C239.825 327.65 239.274 327.891 238.829 328.371C238.384 328.846 238.108 329.514 238.003 330.375H242.767V330.252C242.72 329.426 242.497 328.787 242.099 328.336C241.7 327.879 241.161 327.65 240.481 327.65ZM246.317 335.147C246.317 334.866 246.399 334.632 246.563 334.444C246.733 334.257 246.985 334.163 247.319 334.163C247.653 334.163 247.905 334.257 248.075 334.444C248.251 334.632 248.339 334.866 248.339 335.147C248.339 335.417 248.251 335.643 248.075 335.824C247.905 336.006 247.653 336.097 247.319 336.097C246.985 336.097 246.733 336.006 246.563 335.824C246.399 335.643 246.317 335.417 246.317 335.147Z" fill="#BBBBBB"/>
<path d="M304 212.667C304 217.735 301.998 222.596 298.435 226.18C294.872 229.764 290.039 231.778 285 231.778H171L133 270V117.111C133 112.043 135.002 107.182 138.565 103.598C142.128 100.013 146.961 98 152 98H285C290.039 98 294.872 100.013 298.435 103.598C301.998 107.182 304 112.043 304 117.111V212.667Z" fill="white" stroke="#C3C3C3" stroke-width="10" stroke-linecap="round" stroke-linejoin="round"/>
<path d="M218 201C237.882 201 254 184.882 254 165C254 145.118 237.882 129 218 129C198.118 129 182 145.118 182 165C182 184.882 198.118 201 218 201Z" stroke="#C3C3C3" stroke-width="6" stroke-linecap="round" stroke-linejoin="round"/>
<path d="M203.6 172.2C203.6 172.2 209 179.4 218 179.4C227 179.4 232.4 172.2 232.4 172.2" stroke="#C3C3C3" stroke-width="6" stroke-linecap="round" stroke-linejoin="round"/>
<path d="M207.2 154.2H207.236" stroke="#C3C3C3" stroke-width="6" stroke-linecap="round" stroke-linejoin="round"/>
<path d="M228.8 154.2H228.836" stroke="#C3C3C3" stroke-width="6" stroke-linecap="round" stroke-linejoin="round"/>
</svg>
